<svg aria-hidden="true" style="position: absolute; width: 0; height: 0; overflow: hidden;" version="1.1" xmlns="http://www.w3.org/2000/svg" xmlns:xlink="http://www.w3.org/1999/xlink">
<defs>
<symbol id="icon-Trash" viewBox="0 0 32 32">
<path fill="none" stroke="#737373" style="stroke: var(--color1, #737373)" stroke-linejoin="round" stroke-linecap="round" stroke-miterlimit="4" stroke-width="2.1595" d="M27 7h-22"></path>
<path fill="none" stroke="#737373" style="stroke: var(--color1, #737373)" stroke-linejoin="round" stroke-linecap="round" stroke-miterlimit="4" stroke-width="2.1595" d="M13 13v8"></path>
<path fill="none" stroke="#737373" style="stroke: var(--color1, #737373)" stroke-linejoin="round" stroke-linecap="round" stroke-miterlimit="4" stroke-width="2.1595" d="M19 13v8"></path>
<path fill="none" stroke="#737373" style="stroke: var(--color1, #737373)" stroke-linejoin="round" stroke-linecap="round" stroke-miterlimit="4" stroke-width="2.1595" d="M25 7v19c0 0.265-0.105 0.52-0.293 0.707s-0.442 0.293-0.707 0.293h-16c-0.265 0-0.52-0.105-0.707-0.293s-0.293-0.442-0.293-0.707v-19"></path>
<path fill="none" stroke="#737373" style="stroke: var(--color1, #737373)" stroke-linejoin="round" stroke-linecap="round" stroke-miterlimit="4" stroke-width="2.1595" d="M21 7v-2c0-0.53-0.211-1.039-0.586-1.414s-0.884-0.586-1.414-0.586h-6c-0.53 0-1.039 0.211-1.414 0.586s-0.586 0.884-0.586 1.414v2"></path>
</symbol>
<symbol id="icon-check" viewBox="0 0 32 32">
<path fill="none" stroke="#fff" style="stroke: var(--color2, #fff)" stroke-linejoin="miter" stroke-linecap="butt" stroke-miterlimit="10" stroke-width="2.4074" d="M30.537 15.87c0-8.097-6.569-14.667-14.667-14.667s-14.667 6.569-14.667 14.667c0 8.097 6.569 14.667 14.667 14.667s14.667-6.569 14.667-14.667z"></path>
<path fill="none" stroke="#fff" style="stroke: var(--color2, #fff)" stroke-linejoin="round" stroke-linecap="round" stroke-miterlimit="4" stroke-width="2.4074" d="M22.833 9.667l-10.111 12.037-4.333-4.815"></path>
</symbol>
<symbol id="icon-printer" viewBox="0 0 32 32">
<path fill="none" stroke="#fff" style="stroke: var(--color2, #fff)" stroke-linejoin="round" stroke-linecap="butt" stroke-miterlimit="4" stroke-width="2.3392" d="M25.871 24.636h1.853c0.818-0.002 1.602-0.329 2.181-0.907s0.905-1.363 0.907-2.181v-12.351c-0.002-0.818-0.329-1.602-0.907-2.181s-1.362-0.905-2.181-0.907h-23.467c-0.818 0.002-1.602 0.329-2.181 0.907s-0.905 1.363-0.907 2.181v12.351c0.002 0.818 0.329 1.602 0.907 2.181s1.362 0.905 2.181 0.907h1.853"></path>
<path fill="none" stroke="#fff" style="stroke: var(--color2, #fff)" stroke-linejoin="round" stroke-linecap="butt" stroke-miterlimit="4" stroke-width="2.3392" d="M23.994 14.756h-16.007c-1.037 0-1.877 0.841-1.877 1.877v12.301c0 1.037 0.841 1.877 1.877 1.877h16.007c1.037 0 1.877-0.84 1.877-1.877v-12.301c0-1.037-0.84-1.877-1.877-1.877z"></path>
<path fill="none" stroke="#fff" style="stroke: var(--color2, #fff)" stroke-linejoin="round" stroke-linecap="butt" stroke-miterlimit="4" stroke-width="2.3392" d="M25.871 6.11v-1.853c-0.002-0.818-0.329-1.602-0.907-2.181s-1.363-0.905-2.181-0.907h-13.586c-0.818 0.002-1.602 0.329-2.181 0.907s-0.905 1.362-0.907 2.181v1.853"></path>
<path fill="#fff" style="fill: var(--color2, #fff)" d="M26.489 12.285c1.023 0 1.853-0.829 1.853-1.853s-0.829-1.853-1.853-1.853c-1.023 0-1.853 0.829-1.853 1.853s0.829 1.853 1.853 1.853z"></path>
</symbol>
<symbol id="icon-box" viewBox="0 0 32 32">
<path fill="#fff" style="fill: var(--color2, #fff)" d="M2 7.616v21.154c0 0.359 0.115 0.653 0.346 0.884s0.526 0.346 0.886 0.346h25.538c0.359 0 0.653-0.115 0.884-0.346s0.346-0.525 0.346-0.884v-21.154h-8v10.94c0 0.613-0.253 1.080-0.758 1.4s-1.027 0.339-1.566 0.056l-3.676-1.82-3.678 1.82c-0.537 0.281-1.059 0.263-1.564-0.056-0.505-0.32-0.758-0.787-0.758-1.4v-10.94h-8zM3.232 32c-0.896 0-1.659-0.315-2.288-0.944s-0.944-1.391-0.944-2.286v-21.798c0-0.389 0.062-0.756 0.186-1.1s0.311-0.661 0.56-0.95l3.116-3.74c0.289-0.391 0.651-0.685 1.086-0.884s0.901-0.298 1.398-0.298h19.232c0.496 0 0.968 0.099 1.416 0.298s0.817 0.493 1.106 0.882l3.154 3.82c0.249 0.289 0.436 0.613 0.56 0.97 0.124 0.356 0.186 0.729 0.186 1.12v21.68c0 0.893-0.315 1.655-0.944 2.286-0.629 0.629-1.391 0.944-2.286 0.944h-25.538zM2.76 5.616h26.44l-2.66-3.196c-0.129-0.128-0.277-0.23-0.444-0.306s-0.34-0.114-0.52-0.114h-19.192c-0.179 0-0.352 0.039-0.52 0.116s-0.315 0.18-0.44 0.308l-2.664 3.192zM11.998 7.616v10.306l4-2 4 2v-10.304l-8-0.002z"></path>
</symbol>
<symbol id="icon-logo" viewBox="0 0 26 32">
<path fill="#fff" style="fill: var(--color2, #fff)" d="M6.698 26.698l-3.042 1.683 1.696-3.019 1.347 1.336zM12.313 8.454l0.949-3.326 0.949 3.326h-1.897zM18.886 10.172c0.582-0.4 1.28-0.617 1.991-0.617 1.919 0 3.476 1.536 3.476 3.428 0 1.043-0.488 2.034-1.32 2.682-0.689-2.26-2.152-4.196-4.148-5.492zM22.067 18.622c0 4.8-3.937 8.707-8.778 8.707-4.837 0-8.774-3.907-8.774-8.707s3.937-8.707 8.774-8.707c4.841 0 8.778 3.903 8.778 8.707zM3.517 15.665c-0.828-0.648-1.32-1.638-1.32-2.682 0-1.891 1.562-3.428 3.481-3.428 0.711 0 1.409 0.218 1.991 0.617-1.995 1.297-3.463 3.232-4.152 5.492zM21.020 25.366l1.696 3.019-3.038-1.683 1.342-1.336zM26.143 31.605l-4.259-7.57c1.043-1.621 1.588-3.49 1.588-5.417 0-0.497-0.036-0.999-0.112-1.492 1.481-0.866 2.398-2.447 2.398-4.151 0-2.66-2.192-4.826-4.886-4.826-1.239 0-2.416 0.457-3.324 1.288-0.568-0.262-1.163-0.471-1.772-0.622l-2.519-8.814-0.125 0.44-2.398 8.387c-0.595 0.151-1.177 0.36-1.736 0.617-0.908-0.839-2.089-1.297-3.333-1.297-2.693 0-4.886 2.162-4.886 4.826 0 1.714 0.926 3.303 2.425 4.165-0.072 0.488-0.107 0.981-0.107 1.474 0 1.852 0.51 3.663 1.481 5.244l-4.577 8.143 0.403-0.222 7.875-4.365c1.521 0.857 3.248 1.305 5.002 1.305 1.714 0 3.405-0.431 4.899-1.248l8.174 4.529-0.21-0.395z"></path>
<path fill="#fff" style="fill: var(--color2, #fff)" d="M8.151 15.647c0-0.977 0.689-1.772 1.53-1.772 0.846 0 1.53 0.795 1.53 1.772v2.748h-3.060v-2.748zM12.491 19.794h0.13v-4.147c0-1.749-1.32-3.17-2.94-3.17s-2.94 1.421-2.94 3.17v4.147h5.749z"></path>
<path fill="#fff" style="fill: var(--color2, #fff)" d="M15.337 18.395v-2.748c0-0.977 0.689-1.772 1.53-1.772 0.846 0 1.53 0.795 1.53 1.772v2.748h-3.060zM16.872 12.481c-1.62 0-2.94 1.421-2.94 3.17v4.147h5.879v-4.147c-0.004-1.749-1.32-3.17-2.94-3.17z"></path>
<path fill="#fff" style="fill: var(--color2, #fff)" d="M18.725 21.708c-1.069 1.976-3.195 3.241-5.463 3.241-2.273 0-4.394-1.265-5.463-3.241h10.926zM5.741 20.314l0.058 0.169 0.26 0.755c1.051 3.055 3.946 5.111 7.203 5.111s6.152-2.051 7.203-5.111l0.259-0.755 0.058-0.169h-15.042z"></path>
</symbol>
<symbol id="icon-search" viewBox="0 0 32 32">
<path fill="#fff" style="fill: var(--color2, #fff)" d="M11.835 23.67c-3.308 0-6.107-1.146-8.397-3.438s-3.436-5.091-3.438-8.397c-0.001-3.306 1.145-6.106 3.438-8.397s5.092-3.438 8.397-3.438c3.305 0 6.105 1.146 8.399 3.438s3.439 5.091 3.436 8.397c0 1.335-0.212 2.595-0.637 3.778s-1.001 2.23-1.73 3.141l10.196 10.196c0.334 0.334 0.501 0.759 0.501 1.275s-0.167 0.941-0.501 1.275c-0.334 0.334-0.759 0.501-1.275 0.501s-0.941-0.167-1.275-0.501l-10.196-10.196c-0.91 0.728-1.957 1.305-3.141 1.73s-2.443 0.637-3.778 0.637zM11.835 20.028c2.276 0 4.211-0.796 5.805-2.389s2.39-3.527 2.389-5.805c-0.001-2.277-0.797-4.211-2.389-5.803s-3.526-2.388-5.805-2.391c-2.278-0.002-4.213 0.794-5.803 2.391s-2.387 3.53-2.391 5.803c-0.004 2.272 0.793 4.207 2.391 5.805s3.532 2.394 5.803 2.389z"></path>
</symbol>
<symbol id="icon-account" viewBox="0 0 33 32">
<path fill="#fff" style="fill: var(--color2, #fff)" d="M16.696 14.512c-1.981 0-3.669-0.707-5.064-2.121s-2.092-3.126-2.092-5.135c0-2.009 0.697-3.721 2.092-5.135s3.082-2.121 5.064-2.121c1.981 0 3.669 0.707 5.064 2.121s2.092 3.126 2.092 5.135c0 2.009-0.697 3.721-2.092 5.135s-3.082 2.121-5.064 2.121zM0 29.489v-1.471c0-0.998 0.286-1.932 0.859-2.801 0.574-0.871 1.345-1.546 2.314-2.027 2.252-1.095 4.505-1.916 6.759-2.462 2.253-0.548 4.508-0.822 6.764-0.822s4.512 0.274 6.766 0.822c2.255 0.548 4.506 1.369 6.755 2.462 0.97 0.481 1.741 1.156 2.313 2.027 0.574 0.869 0.861 1.803 0.861 2.801v1.471c0 0.709-0.238 1.306-0.713 1.79-0.475 0.481-1.064 0.721-1.765 0.721h-28.433c-0.701 0-1.29-0.241-1.765-0.723s-0.714-1.078-0.716-1.787z"></path>
</symbol>
<symbol id="icon-bag" viewBox="0 0 33 32">
<path fill="#fff" style="fill: var(--color2, #fff)" d="M30.3 7.361h-5.591c-0.163-2.005-1.078-3.876-2.563-5.24s-3.43-2.121-5.45-2.121-3.965 0.757-5.45 2.121c-1.485 1.364-2.399 3.234-2.563 5.24h-5.591c-0.82 0-1.606 0.324-2.186 0.902s-0.906 1.361-0.906 2.178v18.479c0 0.817 0.326 1.6 0.906 2.178s1.366 0.902 2.186 0.902h27.208c0.82 0 1.606-0.324 2.186-0.902s0.906-1.361 0.906-2.178v-18.479c0-0.817-0.326-1.6-0.906-2.178s-1.366-0.902-2.186-0.902zM16.696 3.665c1.041 0 2.047 0.374 2.833 1.053s1.302 1.617 1.45 2.643h-8.567c0.149-1.026 0.664-1.965 1.45-2.643s1.793-1.052 2.833-1.053zM29.681 28.304h-25.971v-17.247h4.947v1.848c0 0.49 0.195 0.96 0.543 1.307s0.82 0.541 1.312 0.541 0.964-0.195 1.312-0.541c0.348-0.347 0.543-0.817 0.543-1.307v-1.848h8.657v1.848c0 0.49 0.195 0.96 0.543 1.307s0.82 0.541 1.312 0.541c0.492 0 0.964-0.195 1.312-0.541s0.543-0.817 0.543-1.307v-1.848h4.947v17.247z"></path>
</symbol>
<symbol id="icon-menu" viewBox="0 0 32 32">
<path d="M2 6h28v6h-28zM2 14h28v6h-28zM2 22h28v6h-28z"></path>
</symbol>
<symbol id="icon-cross" viewBox="0 0 32 32">
<path d="M31.708 25.708c-0-0-0-0-0-0l-9.708-9.708 9.708-9.708c0-0 0-0 0-0 0.105-0.105 0.18-0.227 0.229-0.357 0.133-0.356 0.057-0.771-0.229-1.057l-4.586-4.586c-0.286-0.286-0.702-0.361-1.057-0.229-0.13 0.048-0.252 0.124-0.357 0.228 0 0-0 0-0 0l-9.708 9.708-9.708-9.708c-0-0-0-0-0-0-0.105-0.104-0.227-0.18-0.357-0.228-0.356-0.133-0.771-0.057-1.057 0.229l-4.586 4.586c-0.286 0.286-0.361 0.702-0.229 1.057 0.049 0.13 0.124 0.252 0.229 0.357 0 0 0 0 0 0l9.708 9.708-9.708 9.708c-0 0-0 0-0 0-0.104 0.105-0.18 0.227-0.229 0.357-0.133 0.355-0.057 0.771 0.229 1.057l4.586 4.586c0.286 0.286 0.702 0.361 1.057 0.229 0.13-0.049 0.252-0.124 0.357-0.229 0-0 0-0 0-0l9.708-9.708 9.708 9.708c0 0 0 0 0 0 0.105 0.105 0.227 0.18 0.357 0.229 0.356 0.133 0.771 0.057 1.057-0.229l4.586-4.586c0.286-0.286 0.362-0.702 0.229-1.057-0.049-0.13-0.124-0.252-0.229-0.357z"></path>
</symbol>
</defs>
</svg>
